{"title":"Red-2(2013)1080p BDRip DD5.1-DGrea8","uid":9199739,"size":2256342922,"categoryP":"video","categoryS":"hd___movies","magnet":"?xt=urn:btih:caf514fd8805d2de572a57f696ce8fe803cf1242&amp;dn=Red-2%282013%291080p+BDRip+DD5.1-DGrea8&amp;tr=udp%3A%2F%2Ftracker.openbittorrent.com%3A80&amp;tr=udp%3A%2F%2Fopen.demonii.com%3A1337&amp;tr=udp%3A%2F%2Ftracker.coppersurfer.tk%3A6969&amp;tr=udp%3A%2F%2Fexodus.desync.com%3A6969","seeders":1,"leechers":0,"uploader":"DGrea8","files":-1,"time":1384566875,"description":"                 Red-2(2013)1080p BDRip DD5.1-DGrea8\n\n\nStoryline:-\n\nRetired C.I.A. agent Frank Moses reunites his unlikely team of elite operatives for a global quest to track down a missing portable nuclear device.\n\n\nCast Info:. \n\nBruce Willis\t ...\tFrank\nJohn Malkovich\t ...\tMarvin\nMary-Louise Parker\t ...\tSarah\nHelen Mirren\t ...\tVictoria\nAnthony Hopkins\t ...\tBailey\nByung-hun Lee\t ...\tHan Cho Bai\nJong Kun Lee\t ...\tHan's Father\nCatherine Zeta-Jones\t ...\tKatja\nNeal McDonough\t ...\tJack Horton\nDavid Thewlis\t ...\tThe Frog\nGarrick Hagon\t ...\tDavis\nTim Pigott-Smith\t ...\tDirector Philips\nBrian Cox\t ...\tIvan\nPhilip Arditti\t ...\tArman\nMitchell Mullen\t ...\tWade\n\n\nGeneral Info:. \n\nDirector:Dean Parisot\nWriters: Jon Hoeber, Erich Hoeber\nStars: Bruce Willis, Helen Mirren, John Malkovich\nRelease Date: 19 July 2013 (USA)\nGenres:Action | Comedy | Crime\n\n\nVideo Info:. \n\nVideo\nID : 1\nFormat : AVC\nFormat/Info : Advanced Video Codec\nDuration : 1h 55mn\nBit rate : 2 188 Kbps\nWidth : 1 920 pixels\nHeight : 800 pixels\nDisplay aspect ratio : 2.40:1\nFrame rate mode : Constant\nFrame rate : 23.976 fps\nBit depth : 8 bits\nScan type : Progressive\nStream size : 1.73 GiB (83%)\n\n\nAudio Info:. \n\nAudio\nID : 2\nFormat : AC-3\nMuxing mode : Header stripping\nCodec ID : A_AC3\nDuration : 1h 55mn\nBit rate mode : Constant\nBit rate : 384 Kbps\nChannel(s) : 6 channels\nChannel positions : Front: L C R, Side: L R, LFE\nSampling rate : 48.0 KHz\nBit depth : 16 bits\nCompression mode : Lossy\nStream size : 318 MiB (15%)\nLanguage : English\n\nSubtitle : English\n\n\n\nScreen Shoots:-\n    &lt;a href=&quot;\nhttp://img690.imageshack.us/img690/6453/qrxq.jpg&quot; rel=&quot;nofollow&quot; target=&quot;_NEW&quot;&gt;\nhttp://img690.imageshack.us/img690/6453/qrxq.jpg&lt;/a&gt;\n &lt;a href=&quot;\nhttp://img29.imageshack.us/img29/2793/3ptq.jpg&quot; rel=&quot;nofollow&quot; target=&quot;_NEW&quot;&gt;\nhttp://img29.imageshack.us/img29/2793/3ptq.jpg&lt;/a&gt;\n\n\n\nNote:-- Check The Torrent\n\n\nCheck The Sample Video In This Torrent\t","torrent":{"xt":"urn:btih:caf514fd8805d2de572a57f696ce8fe803cf1242","amp;dn":"Red-2%282013%291080p+BDRip+DD5.1-DGrea8","amp;tr":["udp%3A%2F%2Ftracker.openbittorrent.com%3A80","udp%3A%2F%2Fopen.demonii.com%3A1337","udp%3A%2F%2Ftracker.coppersurfer.tk%3A6969","udp%3A%2F%2Fexodus.desync.com%3A6969"],"infoHash":"caf514fd8805d2de572a57f696ce8fe803cf1242","infoHashBuffer":{"type":"Buffer","data":[202,245,20,253,136,5,210,222,87,42,87,246,150,206,143,232,3,207,18,66]},"announce":[],"urlList":[]}}